<svg width="43" height="41" viewBox="0 0 43 41" fill="none" xmlns="http://www.w3.org/2000/svg">
<path d="M15.9858 40.196C17.0164 40.196 17.8519 39.3606 17.8519 38.33C17.8519 37.2994 17.0164 36.4639 15.9858 36.4639C14.9552 36.4639 14.1198 37.2994 14.1198 38.33C14.1198 39.3606 14.9552 40.196 15.9858 40.196Z" stroke="#F5B2B6" stroke-linecap="round" stroke-linejoin="round"/>
<path d="M36.5127 40.196C37.5433 40.196 38.3787 39.3606 38.3787 38.33C38.3787 37.2994 37.5433 36.4639 36.5127 36.4639C35.4821 36.4639 34.6466 37.2994 34.6466 38.33C34.6466 39.3606 35.4821 40.196 36.5127 40.196Z" stroke="#F5B2B6" stroke-linecap="round" stroke-linejoin="round"/>
<path d="M1.05713 1.0083H8.52139L13.5225 25.995C13.6931 26.8541 14.1605 27.6258 14.8428 28.1751C15.5251 28.7243 16.3788 29.0161 17.2546 28.9993H35.3927C36.2685 29.0161 37.1222 28.7243 37.8046 28.1751C38.4869 27.6258 38.9542 26.8541 39.1249 25.995L42.1106 10.3387H10.3875" stroke="#F5B2B6" stroke-linecap="round" stroke-linejoin="round"/>
</svg>
