<svg width="169" height="217" viewBox="0 0 169 217" fill="none" xmlns="http://www.w3.org/2000/svg">
<path d="M57.516 7.93394C49.4388 11.0858 44.6246 13.6409 38.3141 18.124C33.4588 21.5731 26.6773 28.31 23.7302 32.6117C22.205 34.8381 21.2909 35.7761 20.783 35.6373C20.3778 35.5269 17.9127 34.9845 15.3051 34.4332C12.6975 33.8814 10.5664 33.3116 10.5701 33.1675C10.5849 32.5546 15.7339 27.0865 18.4678 24.7801C26.5108 17.9942 38.5047 12.0893 51.0398 8.7448C60.2503 6.28709 62.4379 6.01321 57.516 7.93394Z" fill="#F5B2B6"/>
<path d="M15.8329 39.0904C18.5154 39.6755 20.5735 40.3673 20.8075 40.762C21.3423 41.6644 34.6818 96.9724 34.4247 97.2216C34.1994 97.4403 23.516 95.0984 23.516 94.8308C23.516 94.737 20.4976 82.1804 16.8085 66.9272C13.1194 51.6735 10.101 38.94 10.101 38.6307C10.101 37.8894 10.4595 37.9182 15.8329 39.0904Z" fill="#F5B2B6"/>
<path d="M29.7609 100.962C32.3051 101.499 34.4399 101.98 34.5047 102.032C34.6467 102.146 17.1929 143.579 16.8723 143.891C16.6618 144.095 5.90073 141.896 5.57831 141.583C5.49551 141.503 9.20868 132.473 13.8304 121.518C18.4521 110.562 22.4206 101.123 22.65 100.541C22.9683 99.735 23.3124 99.5438 24.1011 99.735C24.6697 99.8729 27.2167 100.425 29.7609 100.962Z" fill="#F5B2B6"/>
<path d="M12.0341 147.678L16.511 148.651L17.6902 152.288C18.3387 154.289 23.0215 168.551 28.0965 183.983C33.1715 199.415 37.2339 212.128 37.1243 212.235C37.0147 212.341 34.3529 211.863 31.2097 211.172L25.4949 209.916L17.031 182.921C12.3755 168.073 7.88522 153.733 7.05211 151.054C5.55888 146.253 5.55148 146.187 6.54696 146.443C7.10252 146.586 9.57134 147.141 12.0341 147.678Z" fill="#F5B2B6"/>
<path fill-rule="evenodd" clip-rule="evenodd" d="M75.4097 0.407246C54.0346 1.80896 33.6433 8.40987 19.3527 18.5532C15.263 21.4563 9.41592 27.2872 6.6973 31.1736L4.45376 34.3811L11.9032 65.1991C16.0004 82.1489 19.3527 96.29 19.3527 96.6236C19.3527 96.9572 14.9984 107.559 9.67635 120.184L0 143.138L10.9734 178.141C17.0088 197.393 22.045 213.239 22.1648 213.356C22.2846 213.472 26.1046 214.39 30.6532 215.395C37.9454 217.008 39.0399 217.15 39.9049 216.6C41.7451 215.429 76.9358 181.43 84.1738 173.829C98.0176 159.291 113.243 141.443 113.252 139.74C113.259 138.539 112.405 137.742 111.111 137.742C110.324 137.742 108.583 139.556 103.893 145.262C90.9822 160.972 77.8845 174.77 56.3937 195.303C46.11 205.128 41.2889 209.449 41.0595 209.044C40.4984 208.058 20.7405 147.678 20.7405 146.951C20.7405 146.578 25.0078 136.145 30.2235 123.769C35.4391 111.392 39.7064 100.861 39.7064 100.366C39.7064 99.6327 25.865 41.7928 25.1105 39.3728C24.7187 38.1171 29.4884 31.7002 34.0934 27.2868C57.936 4.43595 103.671 -1.09728 129.448 15.7502C138.033 21.3611 144.546 30.2262 147.041 39.6984C150.659 53.4264 147.855 71.6163 139.197 90.5785C137.906 93.4071 136.849 95.9784 136.849 96.2927C136.849 97.157 138.914 98.2956 139.85 97.9472C141.294 97.4093 146.675 84.872 149.362 75.7824C152.592 64.8592 153.754 52.9828 152.417 44.5455C151.028 35.777 147.362 26.6209 143.055 21.1631C133.823 9.46317 115.298 1.90145 92.1201 0.370881C84.5254 -0.130629 83.5822 -0.128387 75.4097 0.407246ZM38.3141 18.124C44.6246 13.6409 49.4388 11.0858 57.516 7.93394C62.4379 6.01321 60.2503 6.28709 51.0398 8.7448C38.5047 12.0893 26.5108 17.9942 18.4678 24.7801C15.7339 27.0865 10.5849 32.5546 10.5701 33.1675C10.5664 33.3116 12.6975 33.8814 15.3051 34.4332C17.9127 34.9845 20.3778 35.5269 20.783 35.6373C21.2909 35.7761 22.205 34.8381 23.7302 32.6117C26.6773 28.31 33.4588 21.5731 38.3141 18.124ZM20.8075 40.762C20.5735 40.3673 18.5154 39.6755 15.8329 39.0904C10.4595 37.9182 10.101 37.8894 10.101 38.6307C10.101 38.94 13.1194 51.6735 16.8085 66.9272C20.4976 82.1804 23.516 94.737 23.516 94.8308C23.516 95.0984 34.1994 97.4403 34.4247 97.2216C34.6818 96.9724 21.3423 41.6644 20.8075 40.762ZM34.5047 102.032C34.4399 101.98 32.3051 101.499 29.7609 100.962C27.2167 100.425 24.6697 99.8729 24.1011 99.735C23.3124 99.5438 22.9683 99.735 22.65 100.541C22.4206 101.123 18.4521 110.562 13.8304 121.518C9.20868 132.473 5.49551 141.503 5.57831 141.583C5.90073 141.896 16.6618 144.095 16.8723 143.891C17.1929 143.579 34.6467 102.146 34.5047 102.032ZM16.511 148.651L12.0341 147.678C9.57134 147.141 7.10252 146.586 6.54696 146.443C5.55148 146.187 5.55888 146.253 7.05211 151.054C7.88522 153.733 12.3755 168.073 17.031 182.921L25.4949 209.916L31.2097 211.172C34.3529 211.863 37.0147 212.341 37.1243 212.235C37.2339 212.128 33.1715 199.415 28.0965 183.983C23.0215 168.551 18.3387 154.289 17.6902 152.288L16.511 148.651Z" fill="white"/>
<path d="M86.4405 107.017C84.4028 107.937 83.8167 108.046 83.4337 107.573C83.108 107.171 81.7356 106.991 79.0738 107.001C75.486 107.014 75.1603 107.092 74.8079 108.016C74.1695 109.691 75.0609 111.171 76.8058 111.334L78.3323 111.476V120.456V129.435H76.7674C74.9291 129.435 74.144 130.743 74.8703 132.597L75.3135 133.729L80.9861 133.602L86.6588 133.476L86.8059 131.988C86.9845 130.182 86.2629 129.22 84.9755 129.546C84.4232 129.686 83.8477 129.525 83.6118 129.163C83.121 128.411 83.059 113.919 83.5433 113.257C85.1767 111.025 90.323 109.453 93.0929 110.34C95.4734 111.103 95.7185 112.192 95.5747 121.361L95.4479 129.435H94.0736C92.9851 129.435 92.6035 129.697 92.2409 130.694C91.3601 133.114 92.0951 133.461 98.3946 133.602C103.972 133.727 104.021 133.72 104.444 132.64C104.939 131.377 104.597 129.678 103.836 129.619C103.548 129.596 102.687 129.545 101.924 129.506L100.536 129.435L100.305 119.761C100.105 111.387 99.96 109.918 99.2282 108.835C97.1877 105.817 91.033 104.941 86.4405 107.017Z" fill="white"/>
<path fill-rule="evenodd" clip-rule="evenodd" d="M122.663 97.6095C122.189 98.3122 122.142 98.8667 122.486 99.7422C122.924 100.861 123.121 100.925 126.106 100.925C127.945 100.925 129.495 101.15 129.818 101.464C130.33 101.961 130.653 108.109 130.168 108.109C130.056 108.109 129.171 107.654 128.202 107.099C125.911 105.784 119.427 105.648 117.123 106.865C114.844 108.069 112.747 110.352 111.446 113.045C110.397 115.215 110.252 116.093 110.258 120.231C110.265 125.53 110.976 127.681 113.725 130.72C116.146 133.395 118.451 134.352 122.509 134.364C125.487 134.373 126.291 134.196 128.181 133.118C130.046 132.053 130.427 131.967 130.659 132.556C130.875 133.101 131.706 133.252 134.493 133.252C138.269 133.252 139.162 132.858 139.162 131.196C139.162 129.961 138.384 129.332 136.618 129.138L135.23 128.986L135.109 112.823L134.987 96.66H129.145C123.708 96.66 123.259 96.7255 122.663 97.6095ZM130.37 119.721C130.374 116.16 128.652 112.436 126.426 111.19C124.885 110.327 122.358 109.894 120.737 110.213C119.117 110.533 116.317 113.502 115.675 115.58C114.708 118.713 114.957 123.267 116.243 125.948C117.686 128.954 119.532 130.105 122.917 130.107C125.23 130.109 125.546 129.974 127.374 128.199C129.657 125.983 130.367 123.975 130.37 119.721Z" fill="white"/>
<path fill-rule="evenodd" clip-rule="evenodd" d="M51.6171 106.505C45.9518 108.467 42.5338 114.431 43.0773 121.407C43.6902 129.272 48.267 134.04 55.6439 134.5C59.8303 134.76 64.1337 133.723 66.906 131.784C69.373 130.058 69.9863 128.806 69.0195 127.467C68.0699 126.151 66.7478 126.279 64.65 127.892C62.4286 129.599 60.6514 130.109 56.9179 130.109C53.5377 130.109 51.7947 129.381 50.1956 127.303C48.7407 125.412 47.7758 122.546 48.3929 121.947C48.6797 121.669 52.7245 121.558 59.1355 121.652L69.4183 121.803L69.2092 118.435C68.872 112.988 66.1066 108.842 61.4479 106.797C58.9958 105.721 54.2839 105.581 51.6171 106.505ZM64.0144 116.303C63.5388 114.407 61.6015 111.801 60.1106 111.052C58.3338 110.161 55.5222 109.845 53.8634 110.352C52.1171 110.884 49.9342 112.899 49.1325 114.717L49.0465 114.912C48.6334 115.845 48.3671 116.447 48.5513 116.835C48.8855 117.539 50.7031 117.539 55.8191 117.538L56.4095 117.538H64.3238L64.0144 116.303Z" fill="white"/>
<path d="M150.567 106.519C147.06 107.733 145.176 110.328 145.176 113.946C145.176 119.223 148.549 121.721 156.43 122.28C162.305 122.697 163.679 123.488 163.679 126.456C163.679 129.008 161.573 130.109 156.687 130.109C151.871 130.109 149.339 128.467 149.339 125.343C149.339 124.459 149.062 123.816 148.607 123.647C147.409 123.2 145.254 123.337 144.908 123.881C144.302 124.833 144.615 133.813 145.268 134.214C146.285 134.841 147.909 134.64 148.796 133.779C149.575 133.023 149.779 133.012 151.455 133.629C152.563 134.038 154.985 134.313 157.666 134.336C161.378 134.368 162.398 134.213 164.24 133.332C170.16 130.503 170.296 121.965 164.468 119.041C163.664 118.637 161.009 118.172 158.312 117.963C153.162 117.563 150.988 116.788 150.18 115.067C149.509 113.639 150.366 111.591 151.984 110.751C153.523 109.952 158.407 110.002 160.21 110.836C161.249 111.316 161.79 112.042 162.362 113.722C163.076 115.821 163.235 115.975 164.822 116.108C167.295 116.313 167.804 115.715 167.316 113.175C167.093 112.017 167.045 110.08 167.211 108.87C167.435 107.23 167.348 106.569 166.867 106.273C165.838 105.64 163.299 105.8 162.882 106.524C162.547 107.105 162.23 107.105 160.241 106.524C157.439 105.706 152.925 105.703 150.567 106.519Z" fill="white"/>
<path d="M78.9105 46.1857C78.249 46.5597 78.101 47.2839 78.101 50.1434C78.101 54.0352 77.4608 55.1293 75.1821 55.1293C74.2699 55.1293 73.8832 55.4081 73.6741 56.2163C73.174 58.1514 73.6028 58.9142 75.3463 59.189L75.5195 59.2162C76.3315 59.3431 76.8882 59.4302 77.2699 59.7358C78.1024 60.4022 78.1027 62.1082 78.1037 67.5345L78.1038 68.064C78.1052 72.4326 78.3184 76.7477 78.5775 77.6538C79.1696 79.7236 81.6481 81.8719 84.2242 82.5481C87.0474 83.2898 91.4905 82.8408 93.8002 81.581C95.8934 80.4392 98.4548 77.1127 98.4548 75.5359C98.4548 73.6461 95.7125 72.5255 94.5024 73.9205C90.8711 78.1059 90.3294 78.4763 87.8393 78.4763C86.5205 78.4763 85.0481 78.272 84.567 78.0219C83.1714 77.2973 82.7324 74.6986 82.7296 67.1553C82.7268 60.6379 82.7949 60.0641 83.6215 59.6348C84.1137 59.3794 86.6741 59.1702 89.3113 59.1702C94.3512 59.1702 95.2167 58.8738 95.2167 57.1497C95.2167 55.3871 94.3794 55.1293 88.6567 55.1293H83.207L82.9073 53.9692C82.7421 53.3312 82.7421 51.5308 82.9068 49.9688C83.1469 47.6942 83.0604 46.9862 82.4711 46.4146C81.6379 45.606 80.1096 45.5077 78.9105 46.1857Z" fill="white"/>
<path d="M51.6171 53.9692C47.6472 55.1293 44.2023 58.4163 44.1482 62.2802C44.1056 65.3463 45.3421 67.5324 47.8947 68.9036C50.0212 70.0462 51.4931 70.3682 56.7032 70.8293C60.2364 71.1417 60.8295 71.3236 61.7704 72.3854C63.1336 73.9236 63.122 75.4093 61.7352 76.9744C60.7638 78.0704 60.2475 78.2374 57.3434 78.3968C51.3109 78.7277 49.1881 77.678 48.2448 73.898C47.8109 72.1591 47.6116 71.9517 46.2488 71.8233C45.4157 71.7447 44.4877 71.879 44.1866 72.1214C43.3636 72.7841 43.5422 82.0403 44.3878 82.5602C45.4536 83.2153 47.0745 83.0141 47.8544 82.1296C48.5737 81.3147 48.6639 81.3156 51.4353 82.17C56.6704 83.7841 63.1146 82.7093 65.917 79.7545C68.1059 77.4463 68.3146 72.6714 66.3513 69.8087C64.8863 67.6725 62.5031 66.7539 57.3716 66.3475C52.3697 65.9515 51.4982 65.7226 49.999 64.4129C48.7477 63.3196 48.6468 61.4384 49.7677 60.0955C52.026 57.3886 60.5723 58.2125 61.2102 61.1986C61.2685 61.472 61.3212 61.7237 61.3697 61.9553C61.6944 63.5064 61.8306 64.157 62.2221 64.4056C62.5051 64.5853 62.9213 64.555 63.6383 64.5029L63.6397 64.5028C63.7874 64.4921 63.9479 64.4804 64.1226 64.4695L66.3051 64.3334L66.3106 59.5311C66.3162 55.097 66.2454 54.7109 65.3855 54.4864C63.5624 54.0109 61.9105 54.2098 61.9105 54.9048C61.9105 55.2753 61.7287 55.5783 61.5062 55.5783C61.2837 55.5783 60.2165 55.2753 59.135 54.9048C57.0386 54.1869 53.7089 53.3577 51.6171 53.9692Z" fill="white"/>
</svg>
